<svg width="30" height="30" viewBox="0 0 30 30" fill="none" xmlns="http://www.w3.org/2000/svg">
<g filter="url(#filter0_d_169_3708)">
<path d="M25.7908 20.8146L20.5261 15.5499C21.9556 13.9113 22.8273 11.7496 22.8273 9.41363C22.8273 4.2187 18.6086 0 13.4136 0C8.2187 0 4 4.2187 4 9.41363C4 14.6086 8.2187 18.8273 13.4136 18.8273C15.7496 18.8273 17.9113 17.9556 19.5499 16.5261L24.8146 21.7908C24.954 21.9303 25.1284 22 25.3027 22C25.477 22 25.6513 21.9303 25.7908 21.7908C26.0697 21.5468 26.0697 21.0935 25.7908 20.8146ZM5.39461 9.41363C5.39461 4.98574 8.98574 1.39461 13.4136 1.39461C17.8415 1.39461 21.4326 4.98574 21.4326 9.41363C21.4326 13.8415 17.8415 17.4326 13.4136 17.4326C8.98574 17.4326 5.39461 13.8415 5.39461 9.41363Z" fill="#30292A"/>
</g>
<defs>
<filter id="filter0_d_169_3708" x="0" y="0" width="30" height="30" filterUnits="userSpaceOnUse" color-interpolation-filters="sRGB">
<feFlood flood-opacity="0" result="BackgroundImageFix"/>
<feColorMatrix in="SourceAlpha" type="matrix" values="0 0 0 0 0 0 0 0 0 0 0 0 0 0 0 0 0 0 127 0" result="hardAlpha"/>
<feOffset dy="4"/>
<feGaussianBlur stdDeviation="2"/>
<feComposite in2="hardAlpha" operator="out"/>
<feColorMatrix type="matrix" values="0 0 0 0 0 0 0 0 0 0 0 0 0 0 0 0 0 0 0.25 0"/>
<feBlend mode="normal" in2="BackgroundImageFix" result="effect1_dropShadow_169_3708"/>
<feBlend mode="normal" in="SourceGraphic" in2="effect1_dropShadow_169_3708" result="shape"/>
</filter>
</defs>
</svg>
