<svg width="30" height="30" viewBox="0 0 30 30" fill="none" xmlns="http://www.w3.org/2000/svg">
<g filter="url(#filter0_d_169_3707)">
<path fill-rule="evenodd" clip-rule="evenodd" d="M22.3583 17.2491C21.2517 15.4877 19.5585 14.2034 17.6167 13.586C18.631 12.7988 19.2952 11.5827 19.2952 10.2035C19.2952 7.83538 17.3695 5.90827 15 5.90827C12.6319 5.90827 10.7048 7.83538 10.7048 10.2035C10.7048 11.5827 11.369 12.8001 12.3833 13.586C10.4415 14.2034 8.74827 15.4877 7.64172 17.2491C6.20775 15.5625 5.33641 13.3828 5.33641 11.0013C5.33641 5.67173 9.67173 1.33641 15 1.33641C20.3283 1.33641 24.6636 5.67173 24.6636 11.0013C24.6636 13.3828 23.7922 15.5625 22.3583 17.2491ZM12.0412 10.2035C12.0412 8.57174 13.3682 7.24469 15 7.24469C16.6318 7.24469 17.9588 8.57174 17.9588 10.2035C17.9588 11.8353 16.6318 13.1623 15 13.1623C13.3682 13.1623 12.0412 11.8353 12.0412 10.2035ZM15 20.6636C12.5357 20.6636 10.2918 19.7294 8.58389 18.2059C8.59993 18.1845 8.62666 18.1739 8.64136 18.1485C9.95906 15.8979 12.394 14.4987 15 14.4987C17.6047 14.4987 20.0409 15.8979 21.3573 18.1471C21.372 18.1725 21.3947 18.1872 21.4121 18.2099C19.7042 19.7308 17.4617 20.6636 15 20.6636ZM15 0C8.93537 0 4 4.93537 4 11.0013C4 17.066 8.93537 22 15 22C21.0646 22 26 17.066 26 11.0013C26 4.93537 21.0646 0 15 0Z" fill="#30292A"/>
</g>
<defs>
<filter id="filter0_d_169_3707" x="0" y="0" width="30" height="30" filterUnits="userSpaceOnUse" color-interpolation-filters="sRGB">
<feFlood flood-opacity="0" result="BackgroundImageFix"/>
<feColorMatrix in="SourceAlpha" type="matrix" values="0 0 0 0 0 0 0 0 0 0 0 0 0 0 0 0 0 0 127 0" result="hardAlpha"/>
<feOffset dy="4"/>
<feGaussianBlur stdDeviation="2"/>
<feComposite in2="hardAlpha" operator="out"/>
<feColorMatrix type="matrix" values="0 0 0 0 0 0 0 0 0 0 0 0 0 0 0 0 0 0 0.25 0"/>
<feBlend mode="normal" in2="BackgroundImageFix" result="effect1_dropShadow_169_3707"/>
<feBlend mode="normal" in="SourceGraphic" in2="effect1_dropShadow_169_3707" result="shape"/>
</filter>
</defs>
</svg>
