<svg width="40" height="40" viewBox="0 0 40 40" fill="none" xmlns="http://www.w3.org/2000/svg">
<path d="M19.8986 16.4234C19.9604 16.4851 20.0662 16.4851 20.128 16.4234C21.0982 15.656 21.4686 15.3738 22.3154 14.5094C23.3915 13.5039 23.3121 12.1632 22.677 11.5193C22.042 10.8754 21.0012 10.8754 20.3661 11.5193L20.0133 11.9515L19.6605 11.5105C19.3429 11.1929 18.9196 11.0254 18.505 11.0254C18.0905 11.0254 17.6671 11.1841 17.3496 11.5105C16.7145 12.1544 16.4675 13.3098 18.0023 14.8445L19.8986 16.4057V16.4234Z" stroke="black" stroke-linejoin="round"/>
<path d="M30.871 13.7508C30.871 7.76186 25.9934 2.88425 20.0044 2.88425C14.0154 2.88425 9.13782 7.76186 9.13782 13.7508C9.13782 19.7398 13.5744 24.1588 19.1841 24.5733C19.0342 25.2349 18.9019 26.0551 18.7519 26.9636C18.3638 29.3627 17.8082 32.3793 17.8082 34.7519C17.8082 37.1246 18.849 37.8831 20.0044 37.8831C21.1599 37.8831 22.2007 37.0629 22.2007 34.7519C22.2007 32.441 21.645 29.3892 21.2569 26.9901C21.1069 26.064 20.9658 25.2349 20.8159 24.5733C26.4256 24.15 30.8622 19.4664 30.8622 13.7508H30.871Z" stroke="black" stroke-linecap="round" stroke-linejoin="round"/>
<path d="M20.0044 22.4476C24.8075 22.4476 28.7012 18.5539 28.7012 13.7508C28.7012 8.94771 24.8075 5.05402 20.0044 5.05402C15.2013 5.05402 11.3076 8.94771 11.3076 13.7508C11.3076 18.5539 15.2013 22.4476 20.0044 22.4476Z" stroke="black" stroke-linecap="round" stroke-linejoin="round"/>
<path d="M19.9515 35.9691C20.4727 35.9691 20.8952 35.5466 20.8952 35.0254C20.8952 34.5041 20.4727 34.0816 19.9515 34.0816C19.4302 34.0816 19.0077 34.5041 19.0077 35.0254C19.0077 35.5466 19.4302 35.9691 19.9515 35.9691Z" fill="#231F20"/>
</svg>
