<svg width="40" height="40" viewBox="0 0 40 40" fill="none" xmlns="http://www.w3.org/2000/svg">
<path d="M18.9107 4.33075C21.7685 6.94155 30.9768 14.8975 30.9768 24.7056C30.9768 31.4796 25.6229 35.8809 18.9107 35.8809C12.1985 35.8809 6.84454 31.4884 6.84454 24.7056C6.84454 14.5711 16.0529 6.94155 18.9107 4.33075V4.33075Z" stroke="black" stroke-linecap="round" stroke-linejoin="round"/>
<path d="M18.9107 33.57C13.1687 33.57 9.15546 29.9272 9.15546 24.7056C9.15546 16.9791 15.3738 10.6902 18.9019 7.45316C22.3947 10.7167 28.6747 17.2525 28.6747 24.7056C28.6747 29.9272 24.6615 33.57 18.9195 33.57H18.9107Z" stroke="black" stroke-linecap="round" stroke-linejoin="round"/>
<path d="M18.8754 11.2988C23.5414 16.1235 25.9052 20.6307 25.9052 24.7056C25.9052 28.4102 23.1621 30.8093 18.9107 30.8093C15.3032 30.8093 12.7806 29.0805 12.1014 26.2933" stroke="black" stroke-linecap="round" stroke-linejoin="round"/>
<path d="M23.9912 23.5678C23.0562 23.5678 22.1213 23.9294 21.4156 24.6527C19.9956 26.0992 19.9956 29.0805 21.4156 30.527L27.1047 35.6957C27.2458 35.8368 27.4752 35.8368 27.6163 35.6957C29.5127 33.7552 31.4178 32.4675 33.3142 30.527C34.7343 29.0805 34.7343 26.0992 33.3142 24.6527C31.8941 23.2062 29.5744 23.2062 28.1543 24.6527L27.3605 25.4642L26.5667 24.6527C25.8522 23.9294 24.9173 23.5678 23.9823 23.5678H23.9912Z" fill="white" stroke="black" stroke-linejoin="round"/>
</svg>
