<svg width="40" height="40" viewBox="0 0 40 40" fill="none" xmlns="http://www.w3.org/2000/svg">
<path d="M19.4663 27.6693C19.5545 27.7575 19.6868 27.7575 19.775 27.6693C21.0893 26.6285 21.5832 26.2492 22.7386 25.0849C24.1852 23.7178 24.0881 21.9184 23.2326 21.0452C22.377 20.172 20.9658 20.1808 20.1102 21.0452L19.6339 21.6362L19.1576 21.0452C18.7254 20.613 18.1609 20.3925 17.5964 20.3925C17.0319 20.3925 16.4674 20.613 16.0352 21.0452C15.1708 21.9096 14.8445 23.4796 16.9173 25.5524L19.484 27.6604L19.4663 27.6693Z" stroke="black" stroke-linejoin="round"/>
<path d="M6.44763 16.9879H33.5524V28.0485C33.5524 29.9096 32.0441 31.4091 30.1918 31.4091H9.80816C7.94708 31.4091 6.44763 29.9008 6.44763 28.0485V16.9879V16.9879Z" stroke="black" stroke-linecap="round" stroke-linejoin="round"/>
<path d="M31.215 12.2337H8.78503V16.9967H31.215V12.2337Z" stroke="black" stroke-linecap="round" stroke-linejoin="round"/>
<path d="M18.0199 6.56229C18.4168 8.89966 17.4554 9.83461 14.3418 9.85225C11.8545 9.86989 10.752 10.8754 9.98462 12.2337H30.0155C30.0155 12.2337 28.0309 7.76185 18.0199 6.56229V6.56229Z" stroke="black" stroke-linecap="round" stroke-linejoin="round"/>
</svg>
